<?xml version="1.0" encoding="utf-8"?>
<!-- Generator: Adobe Illustrator 16.0.0, SVG Export Plug-In . SVG Version: 6.00 Build 0)  -->
<!DOCTYPE svg PUBLIC "-//W3C//DTD SVG 1.1//EN" "http://www.w3.org/Graphics/SVG/1.1/DTD/svg11.dtd">
<svg version="1.1" id="Layer_1" xmlns="http://www.w3.org/2000/svg" xmlns:xlink="http://www.w3.org/1999/xlink" x="0px" y="0px"
	 width="10px" height="10px" viewBox="0 0 10 10" enable-background="new 0 0 10 10" xml:space="preserve">
<g>
	<path fill-rule="evenodd" clip-rule="evenodd" d="M6.989,8.111C6.644,8.559,6.313,9.042,5.921,9.47
		c-0.186,0.202-0.48,0.382-0.752,0.427c-2.217,0.375-4.121-0.231-4.83-2.63C-0.12,5.709-0.127,4.128,0.402,2.583
		C1.055,0.677,3.157-0.383,5.15,0.128c0.867,0.221,1.484,0.729,1.855,1.515C7.142,1.931,7.231,2.24,7.373,2.627
		c0.189-0.529,0.36-0.999,0.526-1.468C8.23,0.212,8.228,0.21,9.267,0.227c0.103,0,0.205,0.01,0.369,0.02
		C9.58,0.419,9.537,0.564,9.488,0.708c-0.504,1.458-1.015,2.916-1.51,4.378C7.917,5.27,7.896,5.484,7.924,5.676
		c0.077,0.532,0.175,1.061,0.288,1.587C8.393,8.084,8.823,8.381,10,8.48c0,0.205,0,0.417,0,0.629c0,0.201,0,0.404,0,0.601
		C8.71,9.958,7.426,9.601,6.989,8.111z M4.193,1.339C3.322,1.348,2.728,1.666,2.361,2.356C1.747,3.511,1.638,4.737,1.789,6.004
		C1.888,6.83,2.098,7.608,2.755,8.197c0.721,0.649,1.741,0.708,2.342,0.092C5.915,7.453,6.289,6.341,6.369,5.28
		c0.07-0.941-0.325-1.937-0.628-2.873C5.509,1.696,4.892,1.345,4.193,1.339z"/>
</g>
</svg>
