<?xml version="1.0" encoding="utf-8"?>
<!-- Generator: Adobe Illustrator 16.0.0, SVG Export Plug-In . SVG Version: 6.00 Build 0)  -->
<!DOCTYPE svg PUBLIC "-//W3C//DTD SVG 1.1//EN" "http://www.w3.org/Graphics/SVG/1.1/DTD/svg11.dtd">
<svg version="1.1" id="Layer_1" xmlns="http://www.w3.org/2000/svg" xmlns:xlink="http://www.w3.org/1999/xlink" x="0px" y="0px"
	 width="15px" height="15px" viewBox="-47.935 -101.501 15 15" enable-background="new -47.935 -101.501 15 15"
	 xml:space="preserve">
<path fill="#1A1A1A" d="M-34.03-92.562c-0.816-1.363-0.326-3.109,1.095-3.904l-1.528-2.553c-0.437,0.247-0.944,0.389-1.486,0.389
	c-1.633,0-2.956-1.285-2.956-2.871h-3.056c0.004,0.489-0.123,0.986-0.394,1.439c-0.816,1.363-2.629,1.827-4.052,1.037l-1.528,2.553
	c0.44,0.241,0.82,0.594,1.091,1.047c0.814,1.361,0.327,3.105-1.089,3.9l1.528,2.553c0.435-0.244,0.94-0.384,1.479-0.384
	c1.627,0,2.948,1.277,2.956,2.855h3.056c-0.001-0.485,0.126-0.975,0.395-1.424c0.814-1.36,2.623-1.825,4.045-1.04l1.528-2.553
	C-33.383-91.76-33.762-92.112-34.03-92.562L-34.03-92.562z M-40.435-90.964c-1.739,0-3.148-1.359-3.148-3.037
	s1.41-3.037,3.148-3.037c1.738,0,3.148,1.36,3.148,3.037S-38.697-90.964-40.435-90.964z"/>
</svg>
